<?xml version="1.0" encoding="UTF-8" standalone="no"?>
<!DOCTYPE svg PUBLIC "-//W3C//DTD SVG 1.1//EN"
 "http://www.w3.org/Graphics/SVG/1.1/DTD/svg11.dtd">
<!-- Generated by graphviz version 2.40.1 (20161225.0304)
 -->
<!-- Title: controllers_diagram Pages: 1 -->
<svg width="856pt" height="809pt"
 viewBox="0.00 0.00 856.21 809.00" xmlns="http://www.w3.org/2000/svg" xmlns:xlink="http://www.w3.org/1999/xlink">
<g id="graph0" class="graph" transform="scale(1 1) rotate(0) translate(4 805)">
<title>controllers_diagram</title>
<polygon fill="transparent" stroke="transparent" points="-4,4 -4,-805 852.2139,-805 852.2139,4 -4,4"/>
<!-- _diagram_info -->
<g id="node1" class="node">
<title>_diagram_info</title>
<text text-anchor="start" x="450" y="-45.6" font-family="Times,serif" font-size="13.00" fill="#000000">Controllers diagram</text>
<text text-anchor="start" x="450" y="-32.6" font-family="Times,serif" font-size="13.00" fill="#000000">Date: May 05 2017 &#45; 13:39</text>
<text text-anchor="start" x="450" y="-19.6" font-family="Times,serif" font-size="13.00" fill="#000000">Generated by RailRoady 1.5.2</text>
<text text-anchor="start" x="450" y="-6.6" font-family="Times,serif" font-size="13.00" fill="#000000">http://railroady.prestonlee.com</text>
</g>
<!-- ApplicationController -->
<g id="node2" class="node">
<title>ApplicationController</title>
<path fill="none" stroke="#000000" d="M97,-493.5C97,-493.5 212.6416,-493.5 212.6416,-493.5 218.6416,-493.5 224.6416,-499.5 224.6416,-505.5 224.6416,-505.5 224.6416,-573.5 224.6416,-573.5 224.6416,-579.5 218.6416,-585.5 212.6416,-585.5 212.6416,-585.5 97,-585.5 97,-585.5 91,-585.5 85,-579.5 85,-573.5 85,-573.5 85,-505.5 85,-505.5 85,-499.5 91,-493.5 97,-493.5"/>
<text text-anchor="middle" x="154.8208" y="-570.3" font-family="Times,serif" font-size="14.00" fill="#000000">ApplicationController</text>
<polyline fill="none" stroke="#000000" points="85,-563.5 224.6416,-563.5 "/>
<polyline fill="none" stroke="#000000" points="85,-539.5 224.6416,-539.5 "/>
<polyline fill="none" stroke="#000000" points="85,-515.5 224.6416,-515.5 "/>
<text text-anchor="start" x="93" y="-500.3" font-family="Times,serif" font-size="14.00" fill="#000000">_layout</text>
</g>
<!-- AwardsController -->
<g id="node3" class="node">
<title>AwardsController</title>
<path fill="none" stroke="#000000" d="M726,-17.5C726,-17.5 817.8047,-17.5 817.8047,-17.5 823.8047,-17.5 829.8047,-23.5 829.8047,-29.5 829.8047,-29.5 829.8047,-193.5 829.8047,-193.5 829.8047,-199.5 823.8047,-205.5 817.8047,-205.5 817.8047,-205.5 726,-205.5 726,-205.5 720,-205.5 714,-199.5 714,-193.5 714,-193.5 714,-29.5 714,-29.5 714,-23.5 720,-17.5 726,-17.5"/>
<text text-anchor="middle" x="771.9023" y="-190.3" font-family="Times,serif" font-size="14.00" fill="#000000">AwardsController</text>
<polyline fill="none" stroke="#000000" points="714,-183.5 829.8047,-183.5 "/>
<text text-anchor="start" x="722" y="-168.3" font-family="Times,serif" font-size="14.00" fill="#000000">index</text>
<text text-anchor="start" x="722" y="-154.3" font-family="Times,serif" font-size="14.00" fill="#000000">destroy</text>
<text text-anchor="start" x="722" y="-140.3" font-family="Times,serif" font-size="14.00" fill="#000000">edit</text>
<text text-anchor="start" x="722" y="-126.3" font-family="Times,serif" font-size="14.00" fill="#000000">create</text>
<text text-anchor="start" x="722" y="-112.3" font-family="Times,serif" font-size="14.00" fill="#000000">new</text>
<text text-anchor="start" x="722" y="-98.3" font-family="Times,serif" font-size="14.00" fill="#000000">show</text>
<text text-anchor="start" x="722" y="-84.3" font-family="Times,serif" font-size="14.00" fill="#000000">update</text>
<polyline fill="none" stroke="#000000" points="714,-77.5 829.8047,-77.5 "/>
<polyline fill="none" stroke="#000000" points="714,-53.5 829.8047,-53.5 "/>
<text text-anchor="start" x="722" y="-38.3" font-family="Times,serif" font-size="14.00" fill="#000000">_layout</text>
<text text-anchor="start" x="722" y="-24.3" font-family="Times,serif" font-size="14.00" fill="#000000">award_params</text>
</g>
<!-- CampaignsController -->
<g id="node4" class="node">
<title>CampaignsController</title>
<path fill="none" stroke="#000000" d="M284,-17.5C284,-17.5 396.5381,-17.5 396.5381,-17.5 402.5381,-17.5 408.5381,-23.5 408.5381,-29.5 408.5381,-29.5 408.5381,-179.5 408.5381,-179.5 408.5381,-185.5 402.5381,-191.5 396.5381,-191.5 396.5381,-191.5 284,-191.5 284,-191.5 278,-191.5 272,-185.5 272,-179.5 272,-179.5 272,-29.5 272,-29.5 272,-23.5 278,-17.5 284,-17.5"/>
<text text-anchor="middle" x="340.269" y="-176.3" font-family="Times,serif" font-size="14.00" fill="#000000">CampaignsController</text>
<polyline fill="none" stroke="#000000" points="272,-169.5 408.5381,-169.5 "/>
<text text-anchor="start" x="280" y="-154.3" font-family="Times,serif" font-size="14.00" fill="#000000">create</text>
<text text-anchor="start" x="280" y="-140.3" font-family="Times,serif" font-size="14.00" fill="#000000">destroy</text>
<text text-anchor="start" x="280" y="-126.3" font-family="Times,serif" font-size="14.00" fill="#000000">edit</text>
<text text-anchor="start" x="280" y="-112.3" font-family="Times,serif" font-size="14.00" fill="#000000">index</text>
<text text-anchor="start" x="280" y="-98.3" font-family="Times,serif" font-size="14.00" fill="#000000">new</text>
<text text-anchor="start" x="280" y="-84.3" font-family="Times,serif" font-size="14.00" fill="#000000">update</text>
<polyline fill="none" stroke="#000000" points="272,-77.5 408.5381,-77.5 "/>
<polyline fill="none" stroke="#000000" points="272,-53.5 408.5381,-53.5 "/>
<text text-anchor="start" x="280" y="-38.3" font-family="Times,serif" font-size="14.00" fill="#000000">_layout</text>
<text text-anchor="start" x="280" y="-24.3" font-family="Times,serif" font-size="14.00" fill="#000000">campaign_params</text>
</g>
<!-- CandidatesController -->
<g id="node5" class="node">
<title>CandidatesController</title>
<path fill="none" stroke="#000000" d="M369,-612.5C369,-612.5 480.752,-612.5 480.752,-612.5 486.752,-612.5 492.752,-618.5 492.752,-624.5 492.752,-624.5 492.752,-788.5 492.752,-788.5 492.752,-794.5 486.752,-800.5 480.752,-800.5 480.752,-800.5 369,-800.5 369,-800.5 363,-800.5 357,-794.5 357,-788.5 357,-788.5 357,-624.5 357,-624.5 357,-618.5 363,-612.5 369,-612.5"/>
<text text-anchor="middle" x="424.876" y="-785.3" font-family="Times,serif" font-size="14.00" fill="#000000">CandidatesController</text>
<polyline fill="none" stroke="#000000" points="357,-778.5 492.752,-778.5 "/>
<text text-anchor="start" x="365" y="-763.3" font-family="Times,serif" font-size="14.00" fill="#000000">index</text>
<text text-anchor="start" x="365" y="-749.3" font-family="Times,serif" font-size="14.00" fill="#000000">destroy</text>
<text text-anchor="start" x="365" y="-735.3" font-family="Times,serif" font-size="14.00" fill="#000000">edit</text>
<text text-anchor="start" x="365" y="-721.3" font-family="Times,serif" font-size="14.00" fill="#000000">create</text>
<text text-anchor="start" x="365" y="-707.3" font-family="Times,serif" font-size="14.00" fill="#000000">new</text>
<text text-anchor="start" x="365" y="-693.3" font-family="Times,serif" font-size="14.00" fill="#000000">show</text>
<text text-anchor="start" x="365" y="-679.3" font-family="Times,serif" font-size="14.00" fill="#000000">update</text>
<polyline fill="none" stroke="#000000" points="357,-672.5 492.752,-672.5 "/>
<polyline fill="none" stroke="#000000" points="357,-648.5 492.752,-648.5 "/>
<text text-anchor="start" x="365" y="-633.3" font-family="Times,serif" font-size="14.00" fill="#000000">_layout</text>
<text text-anchor="start" x="365" y="-619.3" font-family="Times,serif" font-size="14.00" fill="#000000">candidate_params</text>
</g>
<!-- CommentsController -->
<g id="node6" class="node">
<title>CommentsController</title>
<path fill="none" stroke="#000000" d="M726,-629.5C726,-629.5 836.2139,-629.5 836.2139,-629.5 842.2139,-629.5 848.2139,-635.5 848.2139,-641.5 848.2139,-641.5 848.2139,-749.5 848.2139,-749.5 848.2139,-755.5 842.2139,-761.5 836.2139,-761.5 836.2139,-761.5 726,-761.5 726,-761.5 720,-761.5 714,-755.5 714,-749.5 714,-749.5 714,-641.5 714,-641.5 714,-635.5 720,-629.5 726,-629.5"/>
<text text-anchor="middle" x="781.1069" y="-746.3" font-family="Times,serif" font-size="14.00" fill="#000000">CommentsController</text>
<polyline fill="none" stroke="#000000" points="714,-739.5 848.2139,-739.5 "/>
<text text-anchor="start" x="722" y="-724.3" font-family="Times,serif" font-size="14.00" fill="#000000">create</text>
<text text-anchor="start" x="722" y="-710.3" font-family="Times,serif" font-size="14.00" fill="#000000">destroy</text>
<polyline fill="none" stroke="#000000" points="714,-703.5 848.2139,-703.5 "/>
<polyline fill="none" stroke="#000000" points="714,-679.5 848.2139,-679.5 "/>
<text text-anchor="start" x="722" y="-664.3" font-family="Times,serif" font-size="14.00" fill="#000000">_layout</text>
<text text-anchor="start" x="722" y="-650.3" font-family="Times,serif" font-size="14.00" fill="#000000">comment_params</text>
<text text-anchor="start" x="722" y="-636.3" font-family="Times,serif" font-size="14.00" fill="#000000">find_commentable</text>
</g>
<!-- EventsController -->
<g id="node7" class="node">
<title>EventsController</title>
<path fill="none" stroke="#000000" d="M726,-238.5C726,-238.5 813.6484,-238.5 813.6484,-238.5 819.6484,-238.5 825.6484,-244.5 825.6484,-250.5 825.6484,-250.5 825.6484,-414.5 825.6484,-414.5 825.6484,-420.5 819.6484,-426.5 813.6484,-426.5 813.6484,-426.5 726,-426.5 726,-426.5 720,-426.5 714,-420.5 714,-414.5 714,-414.5 714,-250.5 714,-250.5 714,-244.5 720,-238.5 726,-238.5"/>
<text text-anchor="middle" x="769.8242" y="-411.3" font-family="Times,serif" font-size="14.00" fill="#000000">EventsController</text>
<polyline fill="none" stroke="#000000" points="714,-404.5 825.6484,-404.5 "/>
<text text-anchor="start" x="722" y="-389.3" font-family="Times,serif" font-size="14.00" fill="#000000">index</text>
<text text-anchor="start" x="722" y="-375.3" font-family="Times,serif" font-size="14.00" fill="#000000">destroy</text>
<text text-anchor="start" x="722" y="-361.3" font-family="Times,serif" font-size="14.00" fill="#000000">edit</text>
<text text-anchor="start" x="722" y="-347.3" font-family="Times,serif" font-size="14.00" fill="#000000">create</text>
<text text-anchor="start" x="722" y="-333.3" font-family="Times,serif" font-size="14.00" fill="#000000">new</text>
<text text-anchor="start" x="722" y="-319.3" font-family="Times,serif" font-size="14.00" fill="#000000">show</text>
<text text-anchor="start" x="722" y="-305.3" font-family="Times,serif" font-size="14.00" fill="#000000">update</text>
<polyline fill="none" stroke="#000000" points="714,-298.5 825.6484,-298.5 "/>
<polyline fill="none" stroke="#000000" points="714,-274.5 825.6484,-274.5 "/>
<text text-anchor="start" x="722" y="-259.3" font-family="Times,serif" font-size="14.00" fill="#000000">_layout</text>
<text text-anchor="start" x="722" y="-245.3" font-family="Times,serif" font-size="14.00" fill="#000000">event_params</text>
</g>
<!-- GiveupsController -->
<g id="node8" class="node">
<title>GiveupsController</title>
<path fill="none" stroke="#000000" d="M726,-459.5C726,-459.5 822.207,-459.5 822.207,-459.5 828.207,-459.5 834.207,-465.5 834.207,-471.5 834.207,-471.5 834.207,-579.5 834.207,-579.5 834.207,-585.5 828.207,-591.5 822.207,-591.5 822.207,-591.5 726,-591.5 726,-591.5 720,-591.5 714,-585.5 714,-579.5 714,-579.5 714,-471.5 714,-471.5 714,-465.5 720,-459.5 726,-459.5"/>
<text text-anchor="middle" x="774.1035" y="-576.3" font-family="Times,serif" font-size="14.00" fill="#000000">GiveupsController</text>
<polyline fill="none" stroke="#000000" points="714,-569.5 834.207,-569.5 "/>
<text text-anchor="start" x="722" y="-554.3" font-family="Times,serif" font-size="14.00" fill="#000000">create</text>
<text text-anchor="start" x="722" y="-540.3" font-family="Times,serif" font-size="14.00" fill="#000000">destroy</text>
<text text-anchor="start" x="722" y="-526.3" font-family="Times,serif" font-size="14.00" fill="#000000">index</text>
<polyline fill="none" stroke="#000000" points="714,-519.5 834.207,-519.5 "/>
<polyline fill="none" stroke="#000000" points="714,-495.5 834.207,-495.5 "/>
<text text-anchor="start" x="722" y="-480.3" font-family="Times,serif" font-size="14.00" fill="#000000">_layout</text>
<text text-anchor="start" x="722" y="-466.3" font-family="Times,serif" font-size="14.00" fill="#000000">giveup_params</text>
</g>
<!-- PagesController -->
<g id="node9" class="node">
<title>PagesController</title>
<path fill="none" stroke="#000000" d="M12,-323.5C12,-323.5 94.207,-323.5 94.207,-323.5 100.207,-323.5 106.207,-329.5 106.207,-335.5 106.207,-335.5 106.207,-429.5 106.207,-429.5 106.207,-435.5 100.207,-441.5 94.207,-441.5 94.207,-441.5 12,-441.5 12,-441.5 6,-441.5 0,-435.5 0,-429.5 0,-429.5 0,-335.5 0,-335.5 0,-329.5 6,-323.5 12,-323.5"/>
<text text-anchor="middle" x="53.1035" y="-426.3" font-family="Times,serif" font-size="14.00" fill="#000000">PagesController</text>
<polyline fill="none" stroke="#000000" points="0,-419.5 106.207,-419.5 "/>
<text text-anchor="start" x="8" y="-404.3" font-family="Times,serif" font-size="14.00" fill="#000000">discuss</text>
<text text-anchor="start" x="8" y="-390.3" font-family="Times,serif" font-size="14.00" fill="#000000">home</text>
<text text-anchor="start" x="8" y="-376.3" font-family="Times,serif" font-size="14.00" fill="#000000">info</text>
<polyline fill="none" stroke="#000000" points="0,-369.5 106.207,-369.5 "/>
<polyline fill="none" stroke="#000000" points="0,-345.5 106.207,-345.5 "/>
<text text-anchor="start" x="8" y="-330.3" font-family="Times,serif" font-size="14.00" fill="#000000">_layout</text>
</g>
<!-- PromisesController -->
<g id="node10" class="node">
<title>PromisesController</title>
<path fill="none" stroke="#000000" d="M131,-34.5C131,-34.5 231.8828,-34.5 231.8828,-34.5 237.8828,-34.5 243.8828,-40.5 243.8828,-46.5 243.8828,-46.5 243.8828,-210.5 243.8828,-210.5 243.8828,-216.5 237.8828,-222.5 231.8828,-222.5 231.8828,-222.5 131,-222.5 131,-222.5 125,-222.5 119,-216.5 119,-210.5 119,-210.5 119,-46.5 119,-46.5 119,-40.5 125,-34.5 131,-34.5"/>
<text text-anchor="middle" x="181.4414" y="-207.3" font-family="Times,serif" font-size="14.00" fill="#000000">PromisesController</text>
<polyline fill="none" stroke="#000000" points="119,-200.5 243.8828,-200.5 "/>
<text text-anchor="start" x="127" y="-185.3" font-family="Times,serif" font-size="14.00" fill="#000000">like</text>
<text text-anchor="start" x="127" y="-171.3" font-family="Times,serif" font-size="14.00" fill="#000000">edit</text>
<text text-anchor="start" x="127" y="-157.3" font-family="Times,serif" font-size="14.00" fill="#000000">index</text>
<text text-anchor="start" x="127" y="-143.3" font-family="Times,serif" font-size="14.00" fill="#000000">create</text>
<text text-anchor="start" x="127" y="-129.3" font-family="Times,serif" font-size="14.00" fill="#000000">new</text>
<text text-anchor="start" x="127" y="-115.3" font-family="Times,serif" font-size="14.00" fill="#000000">show</text>
<text text-anchor="start" x="127" y="-101.3" font-family="Times,serif" font-size="14.00" fill="#000000">update</text>
<polyline fill="none" stroke="#000000" points="119,-94.5 243.8828,-94.5 "/>
<polyline fill="none" stroke="#000000" points="119,-70.5 243.8828,-70.5 "/>
<text text-anchor="start" x="127" y="-55.3" font-family="Times,serif" font-size="14.00" fill="#000000">_layout</text>
<text text-anchor="start" x="127" y="-41.3" font-family="Times,serif" font-size="14.00" fill="#000000">promise_params</text>
</g>
<!-- Users::OmniauthCallbacksController -->
<g id="node11" class="node">
<title>Users::OmniauthCallbacksController</title>
<path fill="none" stroke="#000000" d="M267,-476.5C267,-476.5 485.3037,-476.5 485.3037,-476.5 491.3037,-476.5 497.3037,-482.5 497.3037,-488.5 497.3037,-488.5 497.3037,-566.5 497.3037,-566.5 497.3037,-572.5 491.3037,-578.5 485.3037,-578.5 485.3037,-578.5 267,-578.5 267,-578.5 261,-578.5 255,-572.5 255,-566.5 255,-566.5 255,-488.5 255,-488.5 255,-482.5 261,-476.5 267,-476.5"/>
<text text-anchor="middle" x="376.1519" y="-563.3" font-family="Times,serif" font-size="14.00" fill="#000000">Users::OmniauthCallbacksController</text>
<polyline fill="none" stroke="#000000" points="255,-556.5 497.3037,-556.5 "/>
<text text-anchor="start" x="263" y="-541.3" font-family="Times,serif" font-size="14.00" fill="#000000">facebook</text>
<text text-anchor="start" x="263" y="-527.3" font-family="Times,serif" font-size="14.00" fill="#000000">twitter</text>
<polyline fill="none" stroke="#000000" points="255,-520.5 497.3037,-520.5 "/>
<text text-anchor="start" x="263" y="-505.3" font-family="Times,serif" font-size="14.00" fill="#000000">omniauth_signup_or_connect_or_signin</text>
<polyline fill="none" stroke="#000000" points="255,-498.5 497.3037,-498.5 "/>
<text text-anchor="start" x="263" y="-483.3" font-family="Times,serif" font-size="14.00" fill="#000000">_layout</text>
</g>
<!-- UsersController -->
<g id="node12" class="node">
<title>UsersController</title>
<path fill="none" stroke="#000000" d="M97,-646.5C97,-646.5 178.4277,-646.5 178.4277,-646.5 184.4277,-646.5 190.4277,-652.5 190.4277,-658.5 190.4277,-658.5 190.4277,-738.5 190.4277,-738.5 190.4277,-744.5 184.4277,-750.5 178.4277,-750.5 178.4277,-750.5 97,-750.5 97,-750.5 91,-750.5 85,-744.5 85,-738.5 85,-738.5 85,-658.5 85,-658.5 85,-652.5 91,-646.5 97,-646.5"/>
<text text-anchor="middle" x="137.7139" y="-735.3" font-family="Times,serif" font-size="14.00" fill="#000000">UsersController</text>
<polyline fill="none" stroke="#000000" points="85,-728.5 190.4277,-728.5 "/>
<text text-anchor="start" x="93" y="-713.3" font-family="Times,serif" font-size="14.00" fill="#000000">me</text>
<text text-anchor="start" x="93" y="-699.3" font-family="Times,serif" font-size="14.00" fill="#000000">show</text>
<polyline fill="none" stroke="#000000" points="85,-692.5 190.4277,-692.5 "/>
<polyline fill="none" stroke="#000000" points="85,-668.5 190.4277,-668.5 "/>
<text text-anchor="start" x="93" y="-653.3" font-family="Times,serif" font-size="14.00" fill="#000000">_layout</text>
</g>
<!-- VotesController -->
<g id="node13" class="node">
<title>VotesController</title>
<path fill="none" stroke="#000000" d="M233,-612.5C233,-612.5 313.4023,-612.5 313.4023,-612.5 319.4023,-612.5 325.4023,-618.5 325.4023,-624.5 325.4023,-624.5 325.4023,-788.5 325.4023,-788.5 325.4023,-794.5 319.4023,-800.5 313.4023,-800.5 313.4023,-800.5 233,-800.5 233,-800.5 227,-800.5 221,-794.5 221,-788.5 221,-788.5 221,-624.5 221,-624.5 221,-618.5 227,-612.5 233,-612.5"/>
<text text-anchor="middle" x="273.2012" y="-785.3" font-family="Times,serif" font-size="14.00" fill="#000000">VotesController</text>
<polyline fill="none" stroke="#000000" points="221,-778.5 325.4023,-778.5 "/>
<text text-anchor="start" x="229" y="-763.3" font-family="Times,serif" font-size="14.00" fill="#000000">like</text>
<text text-anchor="start" x="229" y="-749.3" font-family="Times,serif" font-size="14.00" fill="#000000">edit</text>
<text text-anchor="start" x="229" y="-735.3" font-family="Times,serif" font-size="14.00" fill="#000000">index</text>
<text text-anchor="start" x="229" y="-721.3" font-family="Times,serif" font-size="14.00" fill="#000000">create</text>
<text text-anchor="start" x="229" y="-707.3" font-family="Times,serif" font-size="14.00" fill="#000000">new</text>
<text text-anchor="start" x="229" y="-693.3" font-family="Times,serif" font-size="14.00" fill="#000000">show</text>
<text text-anchor="start" x="229" y="-679.3" font-family="Times,serif" font-size="14.00" fill="#000000">update</text>
<polyline fill="none" stroke="#000000" points="221,-672.5 325.4023,-672.5 "/>
<polyline fill="none" stroke="#000000" points="221,-648.5 325.4023,-648.5 "/>
<text text-anchor="start" x="229" y="-633.3" font-family="Times,serif" font-size="14.00" fill="#000000">_layout</text>
<text text-anchor="start" x="229" y="-619.3" font-family="Times,serif" font-size="14.00" fill="#000000">vote_params</text>
</g>
<!-- Y2012::ApplicationController -->
<g id="node14" class="node">
<title>Y2012::ApplicationController</title>
<path fill="none" stroke="#000000" d="M454,-102.5C454,-102.5 615.5313,-102.5 615.5313,-102.5 621.5313,-102.5 627.5313,-108.5 627.5313,-114.5 627.5313,-114.5 627.5313,-182.5 627.5313,-182.5 627.5313,-188.5 621.5313,-194.5 615.5313,-194.5 615.5313,-194.5 454,-194.5 454,-194.5 448,-194.5 442,-188.5 442,-182.5 442,-182.5 442,-114.5 442,-114.5 442,-108.5 448,-102.5 454,-102.5"/>
<text text-anchor="middle" x="534.7656" y="-179.3" font-family="Times,serif" font-size="14.00" fill="#000000">Y2012::ApplicationController</text>
<polyline fill="none" stroke="#000000" points="442,-172.5 627.5313,-172.5 "/>
<polyline fill="none" stroke="#000000" points="442,-148.5 627.5313,-148.5 "/>
<polyline fill="none" stroke="#000000" points="442,-124.5 627.5313,-124.5 "/>
<text text-anchor="start" x="450" y="-109.3" font-family="Times,serif" font-size="14.00" fill="#000000">_layout</text>
</g>
<!-- Y2012::AwardsController -->
<g id="node15" class="node">
<title>Y2012::AwardsController</title>
<path fill="none" stroke="#000000" d="M335,-221.5C335,-221.5 472.6943,-221.5 472.6943,-221.5 478.6943,-221.5 484.6943,-227.5 484.6943,-233.5 484.6943,-233.5 484.6943,-397.5 484.6943,-397.5 484.6943,-403.5 478.6943,-409.5 472.6943,-409.5 472.6943,-409.5 335,-409.5 335,-409.5 329,-409.5 323,-403.5 323,-397.5 323,-397.5 323,-233.5 323,-233.5 323,-227.5 329,-221.5 335,-221.5"/>
<text text-anchor="middle" x="403.8472" y="-394.3" font-family="Times,serif" font-size="14.00" fill="#000000">Y2012::AwardsController</text>
<polyline fill="none" stroke="#000000" points="323,-387.5 484.6943,-387.5 "/>
<text text-anchor="start" x="331" y="-372.3" font-family="Times,serif" font-size="14.00" fill="#000000">index</text>
<text text-anchor="start" x="331" y="-358.3" font-family="Times,serif" font-size="14.00" fill="#000000">destroy</text>
<text text-anchor="start" x="331" y="-344.3" font-family="Times,serif" font-size="14.00" fill="#000000">edit</text>
<text text-anchor="start" x="331" y="-330.3" font-family="Times,serif" font-size="14.00" fill="#000000">create</text>
<text text-anchor="start" x="331" y="-316.3" font-family="Times,serif" font-size="14.00" fill="#000000">new</text>
<text text-anchor="start" x="331" y="-302.3" font-family="Times,serif" font-size="14.00" fill="#000000">show</text>
<text text-anchor="start" x="331" y="-288.3" font-family="Times,serif" font-size="14.00" fill="#000000">update</text>
<polyline fill="none" stroke="#000000" points="323,-281.5 484.6943,-281.5 "/>
<polyline fill="none" stroke="#000000" points="323,-257.5 484.6943,-257.5 "/>
<text text-anchor="start" x="331" y="-242.3" font-family="Times,serif" font-size="14.00" fill="#000000">_layout</text>
<text text-anchor="start" x="331" y="-228.3" font-family="Times,serif" font-size="14.00" fill="#000000">award_params</text>
</g>
<!-- Y2012::EventsController -->
<g id="node16" class="node">
<title>Y2012::EventsController</title>
<path fill="none" stroke="#000000" d="M539,-442.5C539,-442.5 672.5381,-442.5 672.5381,-442.5 678.5381,-442.5 684.5381,-448.5 684.5381,-454.5 684.5381,-454.5 684.5381,-618.5 684.5381,-618.5 684.5381,-624.5 678.5381,-630.5 672.5381,-630.5 672.5381,-630.5 539,-630.5 539,-630.5 533,-630.5 527,-624.5 527,-618.5 527,-618.5 527,-454.5 527,-454.5 527,-448.5 533,-442.5 539,-442.5"/>
<text text-anchor="middle" x="605.769" y="-615.3" font-family="Times,serif" font-size="14.00" fill="#000000">Y2012::EventsController</text>
<polyline fill="none" stroke="#000000" points="527,-608.5 684.5381,-608.5 "/>
<text text-anchor="start" x="535" y="-593.3" font-family="Times,serif" font-size="14.00" fill="#000000">index</text>
<text text-anchor="start" x="535" y="-579.3" font-family="Times,serif" font-size="14.00" fill="#000000">destroy</text>
<text text-anchor="start" x="535" y="-565.3" font-family="Times,serif" font-size="14.00" fill="#000000">edit</text>
<text text-anchor="start" x="535" y="-551.3" font-family="Times,serif" font-size="14.00" fill="#000000">create</text>
<text text-anchor="start" x="535" y="-537.3" font-family="Times,serif" font-size="14.00" fill="#000000">new</text>
<text text-anchor="start" x="535" y="-523.3" font-family="Times,serif" font-size="14.00" fill="#000000">show</text>
<text text-anchor="start" x="535" y="-509.3" font-family="Times,serif" font-size="14.00" fill="#000000">update</text>
<polyline fill="none" stroke="#000000" points="527,-502.5 684.5381,-502.5 "/>
<polyline fill="none" stroke="#000000" points="527,-478.5 684.5381,-478.5 "/>
<text text-anchor="start" x="535" y="-463.3" font-family="Times,serif" font-size="14.00" fill="#000000">_layout</text>
<text text-anchor="start" x="535" y="-449.3" font-family="Times,serif" font-size="14.00" fill="#000000">event_params</text>
</g>
<!-- Y2012::PagesController -->
<g id="node17" class="node">
<title>Y2012::PagesController</title>
<path fill="none" stroke="#000000" d="M539,-663.5C539,-663.5 667.0967,-663.5 667.0967,-663.5 673.0967,-663.5 679.0967,-669.5 679.0967,-675.5 679.0967,-675.5 679.0967,-769.5 679.0967,-769.5 679.0967,-775.5 673.0967,-781.5 667.0967,-781.5 667.0967,-781.5 539,-781.5 539,-781.5 533,-781.5 527,-775.5 527,-769.5 527,-769.5 527,-675.5 527,-675.5 527,-669.5 533,-663.5 539,-663.5"/>
<text text-anchor="middle" x="603.0483" y="-766.3" font-family="Times,serif" font-size="14.00" fill="#000000">Y2012::PagesController</text>
<polyline fill="none" stroke="#000000" points="527,-759.5 679.0967,-759.5 "/>
<text text-anchor="start" x="535" y="-744.3" font-family="Times,serif" font-size="14.00" fill="#000000">discuss</text>
<text text-anchor="start" x="535" y="-730.3" font-family="Times,serif" font-size="14.00" fill="#000000">home</text>
<text text-anchor="start" x="535" y="-716.3" font-family="Times,serif" font-size="14.00" fill="#000000">info</text>
<polyline fill="none" stroke="#000000" points="527,-709.5 679.0967,-709.5 "/>
<polyline fill="none" stroke="#000000" points="527,-685.5 679.0967,-685.5 "/>
<text text-anchor="start" x="535" y="-670.3" font-family="Times,serif" font-size="14.00" fill="#000000">_layout</text>
</g>
<!-- Y2012::PromisesController -->
<g id="node18" class="node">
<title>Y2012::PromisesController</title>
<path fill="none" stroke="#000000" d="M522,-221.5C522,-221.5 668.7725,-221.5 668.7725,-221.5 674.7725,-221.5 680.7725,-227.5 680.7725,-233.5 680.7725,-233.5 680.7725,-397.5 680.7725,-397.5 680.7725,-403.5 674.7725,-409.5 668.7725,-409.5 668.7725,-409.5 522,-409.5 522,-409.5 516,-409.5 510,-403.5 510,-397.5 510,-397.5 510,-233.5 510,-233.5 510,-227.5 516,-221.5 522,-221.5"/>
<text text-anchor="middle" x="595.3862" y="-394.3" font-family="Times,serif" font-size="14.00" fill="#000000">Y2012::PromisesController</text>
<polyline fill="none" stroke="#000000" points="510,-387.5 680.7725,-387.5 "/>
<text text-anchor="start" x="518" y="-372.3" font-family="Times,serif" font-size="14.00" fill="#000000">like</text>
<text text-anchor="start" x="518" y="-358.3" font-family="Times,serif" font-size="14.00" fill="#000000">edit</text>
<text text-anchor="start" x="518" y="-344.3" font-family="Times,serif" font-size="14.00" fill="#000000">index</text>
<text text-anchor="start" x="518" y="-330.3" font-family="Times,serif" font-size="14.00" fill="#000000">create</text>
<text text-anchor="start" x="518" y="-316.3" font-family="Times,serif" font-size="14.00" fill="#000000">new</text>
<text text-anchor="start" x="518" y="-302.3" font-family="Times,serif" font-size="14.00" fill="#000000">show</text>
<text text-anchor="start" x="518" y="-288.3" font-family="Times,serif" font-size="14.00" fill="#000000">update</text>
<polyline fill="none" stroke="#000000" points="510,-281.5 680.7725,-281.5 "/>
<polyline fill="none" stroke="#000000" points="510,-257.5 680.7725,-257.5 "/>
<text text-anchor="start" x="518" y="-242.3" font-family="Times,serif" font-size="14.00" fill="#000000">_layout</text>
<text text-anchor="start" x="518" y="-228.3" font-family="Times,serif" font-size="14.00" fill="#000000">promise_params</text>
</g>
<!-- Y2012::VotesController -->
<g id="node19" class="node">
<title>Y2012::VotesController</title>
<path fill="none" stroke="#000000" d="M148,-255.5C148,-255.5 274.292,-255.5 274.292,-255.5 280.292,-255.5 286.292,-261.5 286.292,-267.5 286.292,-267.5 286.292,-431.5 286.292,-431.5 286.292,-437.5 280.292,-443.5 274.292,-443.5 274.292,-443.5 148,-443.5 148,-443.5 142,-443.5 136,-437.5 136,-431.5 136,-431.5 136,-267.5 136,-267.5 136,-261.5 142,-255.5 148,-255.5"/>
<text text-anchor="middle" x="211.146" y="-428.3" font-family="Times,serif" font-size="14.00" fill="#000000">Y2012::VotesController</text>
<polyline fill="none" stroke="#000000" points="136,-421.5 286.292,-421.5 "/>
<text text-anchor="start" x="144" y="-406.3" font-family="Times,serif" font-size="14.00" fill="#000000">like</text>
<text text-anchor="start" x="144" y="-392.3" font-family="Times,serif" font-size="14.00" fill="#000000">edit</text>
<text text-anchor="start" x="144" y="-378.3" font-family="Times,serif" font-size="14.00" fill="#000000">index</text>
<text text-anchor="start" x="144" y="-364.3" font-family="Times,serif" font-size="14.00" fill="#000000">create</text>
<text text-anchor="start" x="144" y="-350.3" font-family="Times,serif" font-size="14.00" fill="#000000">new</text>
<text text-anchor="start" x="144" y="-336.3" font-family="Times,serif" font-size="14.00" fill="#000000">show</text>
<text text-anchor="start" x="144" y="-322.3" font-family="Times,serif" font-size="14.00" fill="#000000">update</text>
<polyline fill="none" stroke="#000000" points="136,-315.5 286.292,-315.5 "/>
<polyline fill="none" stroke="#000000" points="136,-291.5 286.292,-291.5 "/>
<text text-anchor="start" x="144" y="-276.3" font-family="Times,serif" font-size="14.00" fill="#000000">_layout</text>
<text text-anchor="start" x="144" y="-262.3" font-family="Times,serif" font-size="14.00" fill="#000000">vote_params</text>
</g>
</g>
</svg>
