<?xml version="1.0" encoding="UTF-8" standalone="no"?>
<!DOCTYPE svg PUBLIC "-//W3C//DTD SVG 1.1//EN"
 "http://www.w3.org/Graphics/SVG/1.1/DTD/svg11.dtd">
<!-- Generated by graphviz version 2.40.1 (20161225.0304)
 -->
<!-- Title: models_diagram Pages: 1 -->
<svg width="579pt" height="284pt"
 viewBox="0.00 0.00 578.82 284.00" xmlns="http://www.w3.org/2000/svg" xmlns:xlink="http://www.w3.org/1999/xlink">
<g id="graph0" class="graph" transform="scale(1 1) rotate(0) translate(4 280)">
<title>models_diagram</title>
<polygon fill="transparent" stroke="transparent" points="-4,4 -4,-280 574.8164,-280 574.8164,4 -4,4"/>
<!-- _diagram_info -->
<g id="node1" class="node">
<title>_diagram_info</title>
<text text-anchor="start" x="51.7364" y="-261.6" font-family="Times,serif" font-size="13.00" fill="#000000">Models diagram</text>
<text text-anchor="start" x="51.7364" y="-248.6" font-family="Times,serif" font-size="13.00" fill="#000000">Date: May 05 2017 &#45; 13:39</text>
<text text-anchor="start" x="51.7364" y="-235.6" font-family="Times,serif" font-size="13.00" fill="#000000">Generated by RailRoady 1.5.2</text>
<text text-anchor="start" x="51.7364" y="-222.6" font-family="Times,serif" font-size="13.00" fill="#000000">http://railroady.prestonlee.com</text>
</g>
<!-- Award -->
<g id="node2" class="node">
<title>Award</title>
<ellipse fill="none" stroke="#000000" cx="537.4566" cy="-162" rx="33.2201" ry="18"/>
<text text-anchor="middle" x="537.4566" y="-157.8" font-family="Times,serif" font-size="14.00" fill="#000000">Award</text>
</g>
<!-- Comment -->
<g id="node5" class="node">
<title>Comment</title>
<ellipse fill="none" stroke="#000000" cx="253.4566" cy="-18" rx="44.9768" ry="18"/>
<text text-anchor="middle" x="253.4566" y="-13.8" font-family="Times,serif" font-size="14.00" fill="#000000">Comment</text>
</g>
<!-- Award&#45;&gt;Comment -->
<g id="edge1" class="edge">
<title>Award&#45;&gt;Comment</title>
<path fill="none" stroke="#6b5e10" d="M530.0282,-136.4526C522.7436,-115.9551 509.6022,-88.0433 488.4566,-72 460.2409,-50.5927 366.655,-33.8927 306.4429,-25.0298"/>
<ellipse fill="none" stroke="#6b5e10" cx="531.3503" cy="-140.3866" rx="4" ry="4"/>
<polygon fill="#6b5e10" stroke="#6b5e10" points="306.2443,-25.0012 296.9907,-19.1172 301.2957,-24.2861 296.3471,-23.571 296.3471,-23.571 296.3471,-23.571 301.2957,-24.2861 295.7035,-28.0247 306.2443,-25.0012 306.2443,-25.0012"/>
</g>
<!-- Promise -->
<g id="node8" class="node">
<title>Promise</title>
<ellipse fill="none" stroke="#000000" cx="440.4566" cy="-90" rx="39.1887" ry="18"/>
<text text-anchor="middle" x="440.4566" y="-85.8" font-family="Times,serif" font-size="14.00" fill="#000000">Promise</text>
</g>
<!-- Award&#45;&gt;Promise -->
<g id="edge2" class="edge">
<title>Award&#45;&gt;Promise</title>
<path fill="none" stroke="#c42031" d="M509.6912,-141.3907C497.2022,-132.1204 482.4534,-121.1729 469.7846,-111.7693"/>
<polygon fill="#c42031" stroke="#c42031" points="509.7975,-141.4695 515.1451,-151.0431 513.8123,-144.4496 517.8272,-147.4297 517.8272,-147.4297 517.8272,-147.4297 513.8123,-144.4496 520.5093,-143.8164 509.7975,-141.4695 509.7975,-141.4695"/>
<polygon fill="#c42031" stroke="#c42031" points="469.4293,-111.5056 464.0817,-101.932 465.4145,-108.5255 461.3996,-105.5454 461.3996,-105.5454 461.3996,-105.5454 465.4145,-108.5255 458.7175,-109.1587 469.4293,-111.5056 469.4293,-111.5056"/>
</g>
<!-- Campaign -->
<g id="node3" class="node">
<title>Campaign</title>
<ellipse fill="none" stroke="#000000" cx="46.4566" cy="-162" rx="46.4132" ry="18"/>
<text text-anchor="middle" x="46.4566" y="-157.8" font-family="Times,serif" font-size="14.00" fill="#000000">Campaign</text>
</g>
<!-- Candidate -->
<g id="node4" class="node">
<title>Candidate</title>
<ellipse fill="none" stroke="#000000" cx="440.4566" cy="-162" rx="45.92" ry="18"/>
<text text-anchor="middle" x="440.4566" y="-157.8" font-family="Times,serif" font-size="14.00" fill="#000000">Candidate</text>
</g>
<!-- Candidate&#45;&gt;Promise -->
<g id="edge3" class="edge">
<title>Candidate&#45;&gt;Promise</title>
<path fill="none" stroke="#a85302" d="M440.4566,-135.8144C440.4566,-130.2775 440.4566,-124.4053 440.4566,-118.7785"/>
<ellipse fill="none" stroke="#a85302" cx="440.4566" cy="-139.8314" rx="4" ry="4"/>
<polygon fill="#a85302" stroke="#a85302" points="440.4567,-118.4133 444.9566,-108.4132 440.4566,-113.4133 440.4566,-108.4133 440.4566,-108.4133 440.4566,-108.4133 440.4566,-113.4133 435.9566,-108.4133 440.4567,-118.4133 440.4567,-118.4133"/>
</g>
<!-- Event -->
<g id="node6" class="node">
<title>Event</title>
<ellipse fill="none" stroke="#000000" cx="179.4566" cy="-162" rx="30.9706" ry="18"/>
<text text-anchor="middle" x="179.4566" y="-157.8" font-family="Times,serif" font-size="14.00" fill="#000000">Event</text>
</g>
<!-- Vote -->
<g id="node11" class="node">
<title>Vote</title>
<ellipse fill="none" stroke="#000000" cx="253.4566" cy="-90" rx="27" ry="18"/>
<text text-anchor="middle" x="253.4566" y="-85.8" font-family="Times,serif" font-size="14.00" fill="#000000">Vote</text>
</g>
<!-- Event&#45;&gt;Vote -->
<g id="edge4" class="edge">
<title>Event&#45;&gt;Vote</title>
<path fill="none" stroke="#488ebb" d="M201.4446,-140.6063C210.6902,-131.6106 221.4417,-121.1496 230.7619,-112.0813"/>
<ellipse fill="none" stroke="#488ebb" cx="198.3804" cy="-143.5876" rx="4" ry="4"/>
<polygon fill="#488ebb" stroke="#488ebb" points="231.0223,-111.8279 241.3277,-108.0796 234.606,-108.3411 238.1896,-104.8543 238.1896,-104.8543 238.1896,-104.8543 234.606,-108.3411 235.0515,-101.629 231.0223,-111.8279 231.0223,-111.8279"/>
</g>
<!-- Giveup -->
<g id="node7" class="node">
<title>Giveup</title>
<ellipse fill="none" stroke="#000000" cx="264.4566" cy="-162" rx="36.2818" ry="18"/>
<text text-anchor="middle" x="264.4566" y="-157.8" font-family="Times,serif" font-size="14.00" fill="#000000">Giveup</text>
</g>
<!-- Sequence -->
<g id="node9" class="node">
<title>Sequence</title>
<ellipse fill="none" stroke="#000000" cx="353.4566" cy="-246" rx="43.9819" ry="18"/>
<text text-anchor="middle" x="353.4566" y="-241.8" font-family="Times,serif" font-size="14.00" fill="#000000">Sequence</text>
</g>
<!-- User -->
<g id="node10" class="node">
<title>User</title>
<ellipse fill="none" stroke="#000000" cx="264.4566" cy="-246" rx="27" ry="18"/>
<text text-anchor="middle" x="264.4566" y="-241.8" font-family="Times,serif" font-size="14.00" fill="#000000">User</text>
</g>
<!-- User&#45;&gt;Award -->
<g id="edge8" class="edge">
<title>User&#45;&gt;Award</title>
<path fill="none" stroke="#a5a322" d="M285.713,-225.3138C290.2908,-221.7459 295.31,-218.4144 300.4566,-216 380.2441,-178.5692 411.0999,-205.5158 495.4566,-180 497.7631,-179.3023 500.1135,-178.5168 502.465,-177.6742"/>
<ellipse fill="none" stroke="#a5a322" cx="282.426" cy="-228.0643" rx="4" ry="4"/>
<polygon fill="#a5a322" stroke="#a5a322" points="502.704,-177.5816 513.6545,-178.1622 507.3658,-175.774 512.0277,-173.9665 512.0277,-173.9665 512.0277,-173.9665 507.3658,-175.774 510.4009,-169.7708 502.704,-177.5816 502.704,-177.5816"/>
</g>
<!-- User&#45;&gt;Campaign -->
<g id="edge9" class="edge">
<title>User&#45;&gt;Campaign</title>
<path fill="none" stroke="#d19c1f" d="M242.9893,-225.7344C238.429,-222.1315 233.4702,-218.6796 228.4566,-216 178.5974,-189.352 160.6425,-196.1224 106.4566,-180 102.1177,-178.709 97.6035,-177.362 93.0858,-176.0112"/>
<ellipse fill="none" stroke="#d19c1f" cx="246.2768" cy="-228.483" rx="4" ry="4"/>
<polygon fill="#d19c1f" stroke="#d19c1f" points="92.8365,-175.9367 84.5472,-168.7577 88.0465,-174.5026 83.2566,-173.0686 83.2566,-173.0686 83.2566,-173.0686 88.0465,-174.5026 81.966,-177.3796 92.8365,-175.9367 92.8365,-175.9367"/>
</g>
<!-- User&#45;&gt;Comment -->
<g id="edge11" class="edge">
<title>User&#45;&gt;Comment</title>
<path fill="none" stroke="#ee0bf5" d="M242.5104,-225.9069C238.0422,-222.3452 233.24,-218.8644 228.4566,-216 191.8493,-194.0786 163.3096,-215.379 139.4566,-180 104.851,-128.6728 175.2694,-69.4341 220.1302,-38.7849"/>
<ellipse fill="none" stroke="#ee0bf5" cx="245.702" cy="-228.5625" rx="4" ry="4"/>
<polygon fill="#ee0bf5" stroke="#ee0bf5" points="220.4066,-38.6004 231.2219,-36.7894 224.5648,-35.8237 228.723,-33.0471 228.723,-33.0471 228.723,-33.0471 224.5648,-35.8237 226.224,-29.3047 220.4066,-38.6004 220.4066,-38.6004"/>
</g>
<!-- User&#45;&gt;Event -->
<g id="edge10" class="edge">
<title>User&#45;&gt;Event</title>
<path fill="none" stroke="#cdc9b0" d="M243.2188,-225.0121C230.9344,-212.8722 215.4575,-197.5774 202.8283,-185.0967"/>
<ellipse fill="none" stroke="#cdc9b0" cx="246.4152" cy="-228.1708" rx="4" ry="4"/>
<polygon fill="#cdc9b0" stroke="#cdc9b0" points="202.4996,-184.7719 198.5499,-174.542 198.9432,-181.2573 195.3868,-177.7428 195.3868,-177.7428 195.3868,-177.7428 198.9432,-181.2573 192.2236,-180.9435 202.4996,-184.7719 202.4996,-184.7719"/>
</g>
<!-- User&#45;&gt;Giveup -->
<g id="edge6" class="edge">
<title>User&#45;&gt;Giveup</title>
<path fill="none" stroke="#5d5b71" d="M264.4566,-219.7244C264.4566,-209.6894 264.4566,-198.2548 264.4566,-188.2246"/>
<ellipse fill="none" stroke="#5d5b71" cx="264.4566" cy="-223.7733" rx="4" ry="4"/>
<ellipse fill="#5d5b71" stroke="#5d5b71" cx="264.4566" cy="-184.1912" rx="4" ry="4"/>
</g>
<!-- User&#45;&gt;Promise -->
<g id="edge5" class="edge">
<title>User&#45;&gt;Promise</title>
<path fill="none" stroke="#c15cd1" d="M286.8987,-226.1081C320.1462,-196.6388 382.2273,-141.6123 416.3878,-111.3337"/>
<ellipse fill="none" stroke="#c15cd1" cx="283.6922" cy="-228.9503" rx="4" ry="4"/>
<ellipse fill="#c15cd1" stroke="#c15cd1" cx="419.4347" cy="-108.633" rx="4" ry="4"/>
</g>
<!-- User&#45;&gt;Vote -->
<g id="edge7" class="edge">
<title>User&#45;&gt;Vote</title>
<path fill="none" stroke="#754790" d="M284.77,-224.5863C301.7206,-203.998 321.3407,-171.9689 309.4566,-144 303.5064,-129.9963 291.9484,-117.8603 280.8704,-108.66"/>
<ellipse fill="none" stroke="#754790" cx="282.0063" cy="-227.8117" rx="4" ry="4"/>
<polygon fill="#754790" stroke="#754790" points="280.8574,-108.6498 275.7456,-98.9482 276.9166,-105.5723 272.9759,-102.4948 272.9759,-102.4948 272.9759,-102.4948 276.9166,-105.5723 270.2062,-106.0415 280.8574,-108.6498 280.8574,-108.6498"/>
</g>
<!-- Vote&#45;&gt;Comment -->
<g id="edge12" class="edge">
<title>Vote&#45;&gt;Comment</title>
<path fill="none" stroke="#898e2c" d="M253.4566,-63.8144C253.4566,-58.2775 253.4566,-52.4053 253.4566,-46.7785"/>
<ellipse fill="none" stroke="#898e2c" cx="253.4566" cy="-67.8314" rx="4" ry="4"/>
<polygon fill="#898e2c" stroke="#898e2c" points="253.4567,-46.4133 257.9566,-36.4132 253.4566,-41.4133 253.4566,-36.4133 253.4566,-36.4133 253.4566,-36.4133 253.4566,-41.4133 248.9566,-36.4133 253.4567,-46.4133 253.4567,-46.4133"/>
</g>
</g>
</svg>
