<?xml version="1.0" encoding="UTF-8" standalone="no"?>
<!DOCTYPE svg PUBLIC "-//W3C//DTD SVG 1.1//EN"
 "http://www.w3.org/Graphics/SVG/1.1/DTD/svg11.dtd">
<!-- Generated by graphviz version 2.40.1 (20161225.0304)
 -->
<!-- Title: models_diagram Pages: 1 -->
<svg width="901pt" height="968pt"
 viewBox="0.00 0.00 900.75 968.00" xmlns="http://www.w3.org/2000/svg" xmlns:xlink="http://www.w3.org/1999/xlink">
<g id="graph0" class="graph" transform="scale(1 1) rotate(0) translate(4 964)">
<title>models_diagram</title>
<polygon fill="transparent" stroke="transparent" points="-4,4 -4,-964 896.752,-964 896.752,4 -4,4"/>
<!-- _diagram_info -->
<g id="node1" class="node">
<title>_diagram_info</title>
<text text-anchor="start" x="164.3403" y="-813.1" font-family="Times,serif" font-size="13.00" fill="#000000">Models diagram</text>
<text text-anchor="start" x="164.3403" y="-800.1" font-family="Times,serif" font-size="13.00" fill="#000000">Date: May 05 2017 &#45; 13:39</text>
<text text-anchor="start" x="164.3403" y="-787.1" font-family="Times,serif" font-size="13.00" fill="#000000">Generated by RailRoady 1.5.2</text>
<text text-anchor="start" x="164.3403" y="-774.1" font-family="Times,serif" font-size="13.00" fill="#000000">http://railroady.prestonlee.com</text>
</g>
<!-- Award -->
<g id="node2" class="node">
<title>Award</title>
<path fill="none" stroke="#000000" d="M769.3691,-421.5C769.3691,-421.5 880.752,-421.5 880.752,-421.5 886.752,-421.5 892.752,-427.5 892.752,-433.5 892.752,-433.5 892.752,-579.5 892.752,-579.5 892.752,-585.5 886.752,-591.5 880.752,-591.5 880.752,-591.5 769.3691,-591.5 769.3691,-591.5 763.3691,-591.5 757.3691,-585.5 757.3691,-579.5 757.3691,-579.5 757.3691,-433.5 757.3691,-433.5 757.3691,-427.5 763.3691,-421.5 769.3691,-421.5"/>
<text text-anchor="middle" x="825.0605" y="-576.3" font-family="Times,serif" font-size="14.00" fill="#000000">Award</text>
<polyline fill="none" stroke="#000000" points="757.3691,-569.5 892.752,-569.5 "/>
<text text-anchor="start" x="765.3691" y="-554.3" font-family="Times,serif" font-size="14.00" fill="#000000">user_id :Object</text>
<text text-anchor="start" x="765.3691" y="-540.3" font-family="Times,serif" font-size="14.00" fill="#000000">address :Object</text>
<text text-anchor="start" x="765.3691" y="-526.3" font-family="Times,serif" font-size="14.00" fill="#000000">content :Object</text>
<text text-anchor="start" x="765.3691" y="-512.3" font-family="Times,serif" font-size="14.00" fill="#000000">created_at :Time</text>
<text text-anchor="start" x="765.3691" y="-498.3" font-family="Times,serif" font-size="14.00" fill="#000000">prize :Object</text>
<text text-anchor="start" x="765.3691" y="-484.3" font-family="Times,serif" font-size="14.00" fill="#000000">promise_ids :Array</text>
<text text-anchor="start" x="765.3691" y="-470.3" font-family="Times,serif" font-size="14.00" fill="#000000">title :Object</text>
<text text-anchor="start" x="765.3691" y="-456.3" font-family="Times,serif" font-size="14.00" fill="#000000">updated_at :Time</text>
<text text-anchor="start" x="765.3691" y="-442.3" font-family="Times,serif" font-size="14.00" fill="#000000">url :Object</text>
<text text-anchor="start" x="765.3691" y="-428.3" font-family="Times,serif" font-size="14.00" fill="#000000">_id :BSON::ObjectId</text>
</g>
<!-- Comment -->
<g id="node5" class="node">
<title>Comment</title>
<path fill="none" stroke="#000000" d="M304.9932,-.5C304.9932,-.5 445.1279,-.5 445.1279,-.5 451.1279,-.5 457.1279,-6.5 457.1279,-12.5 457.1279,-12.5 457.1279,-116.5 457.1279,-116.5 457.1279,-122.5 451.1279,-128.5 445.1279,-128.5 445.1279,-128.5 304.9932,-128.5 304.9932,-128.5 298.9932,-128.5 292.9932,-122.5 292.9932,-116.5 292.9932,-116.5 292.9932,-12.5 292.9932,-12.5 292.9932,-6.5 298.9932,-.5 304.9932,-.5"/>
<text text-anchor="middle" x="375.0605" y="-113.3" font-family="Times,serif" font-size="14.00" fill="#000000">Comment</text>
<polyline fill="none" stroke="#000000" points="292.9932,-106.5 457.1279,-106.5 "/>
<text text-anchor="start" x="300.9932" y="-91.3" font-family="Times,serif" font-size="14.00" fill="#000000">content :Object</text>
<text text-anchor="start" x="300.9932" y="-77.3" font-family="Times,serif" font-size="14.00" fill="#000000">commentable_id :Object</text>
<text text-anchor="start" x="300.9932" y="-63.3" font-family="Times,serif" font-size="14.00" fill="#000000">commentable_type :String</text>
<text text-anchor="start" x="300.9932" y="-49.3" font-family="Times,serif" font-size="14.00" fill="#000000">_id :BSON::ObjectId</text>
<text text-anchor="start" x="300.9932" y="-35.3" font-family="Times,serif" font-size="14.00" fill="#000000">created_at :Time</text>
<text text-anchor="start" x="300.9932" y="-21.3" font-family="Times,serif" font-size="14.00" fill="#000000">updated_at :Time</text>
<text text-anchor="start" x="300.9932" y="-7.3" font-family="Times,serif" font-size="14.00" fill="#000000">user_id :Object</text>
</g>
<!-- Award&#45;&gt;Comment -->
<g id="edge1" class="edge">
<title>Award&#45;&gt;Comment</title>
<path fill="none" stroke="#accddc" d="M842.6677,-413.3199C851.3299,-337.425 849.5793,-232.1948 791.0605,-165 749.2426,-116.982 576.9418,-88.2119 467.6277,-74.4406"/>
<ellipse fill="none" stroke="#accddc" cx="842.1606" cy="-417.5248" rx="4" ry="4"/>
<polygon fill="#accddc" stroke="#accddc" points="467.5038,-74.4253 458.1337,-68.7288 462.5418,-73.8099 457.5799,-73.1945 457.5799,-73.1945 457.5799,-73.1945 462.5418,-73.8099 457.026,-77.6603 467.5038,-74.4253 467.5038,-74.4253"/>
</g>
<!-- Promise -->
<g id="node8" class="node">
<title>Promise</title>
<path fill="none" stroke="#000000" d="M574.3828,-165.5C574.3828,-165.5 769.7383,-165.5 769.7383,-165.5 775.7383,-165.5 781.7383,-171.5 781.7383,-177.5 781.7383,-177.5 781.7383,-365.5 781.7383,-365.5 781.7383,-371.5 775.7383,-377.5 769.7383,-377.5 769.7383,-377.5 574.3828,-377.5 574.3828,-377.5 568.3828,-377.5 562.3828,-371.5 562.3828,-365.5 562.3828,-365.5 562.3828,-177.5 562.3828,-177.5 562.3828,-171.5 568.3828,-165.5 574.3828,-165.5"/>
<text text-anchor="middle" x="672.0605" y="-362.3" font-family="Times,serif" font-size="14.00" fill="#000000">Promise</text>
<polyline fill="none" stroke="#000000" points="562.3828,-355.5 781.7383,-355.5 "/>
<text text-anchor="start" x="570.3828" y="-340.3" font-family="Times,serif" font-size="14.00" fill="#000000">user_id :Object</text>
<text text-anchor="start" x="570.3828" y="-326.3" font-family="Times,serif" font-size="14.00" fill="#000000">age :Object</text>
<text text-anchor="start" x="570.3828" y="-312.3" font-family="Times,serif" font-size="14.00" fill="#000000">area :Object</text>
<text text-anchor="start" x="570.3828" y="-298.3" font-family="Times,serif" font-size="14.00" fill="#000000">award_ids :Array</text>
<text text-anchor="start" x="570.3828" y="-284.3" font-family="Times,serif" font-size="14.00" fill="#000000">candidate_id :Object</text>
<text text-anchor="start" x="570.3828" y="-270.3" font-family="Times,serif" font-size="14.00" fill="#000000">created_at :Time</text>
<text text-anchor="start" x="570.3828" y="-256.3" font-family="Times,serif" font-size="14.00" fill="#000000">likes :Integer</text>
<text text-anchor="start" x="570.3828" y="-242.3" font-family="Times,serif" font-size="14.00" fill="#000000">reason :Object</text>
<text text-anchor="start" x="570.3828" y="-228.3" font-family="Times,serif" font-size="14.00" fill="#000000">seq :Integer</text>
<text text-anchor="start" x="570.3828" y="-214.3" font-family="Times,serif" font-size="14.00" fill="#000000">sex :Object</text>
<text text-anchor="start" x="570.3828" y="-200.3" font-family="Times,serif" font-size="14.00" fill="#000000">show_candidate :Mongoid::Boolean</text>
<text text-anchor="start" x="570.3828" y="-186.3" font-family="Times,serif" font-size="14.00" fill="#000000">updated_at :Time</text>
<text text-anchor="start" x="570.3828" y="-172.3" font-family="Times,serif" font-size="14.00" fill="#000000">_id :BSON::ObjectId</text>
</g>
<!-- Award&#45;&gt;Promise -->
<g id="edge2" class="edge">
<title>Award&#45;&gt;Promise</title>
<path fill="none" stroke="#c94ea3" d="M764.1496,-412.944C758.4256,-404.1522 752.58,-395.1736 746.7484,-386.2167"/>
<polygon fill="#c94ea3" stroke="#c94ea3" points="764.1515,-412.947 765.8365,-423.7826 766.8796,-417.1372 769.6077,-421.3273 769.6077,-421.3273 769.6077,-421.3273 766.8796,-417.1372 773.3789,-418.8721 764.1515,-412.947 764.1515,-412.947"/>
<polygon fill="#c94ea3" stroke="#c94ea3" points="746.6223,-386.0229 744.9372,-375.1872 743.8942,-381.8327 741.1661,-377.6425 741.1661,-377.6425 741.1661,-377.6425 743.8942,-381.8327 737.3949,-380.0978 746.6223,-386.0229 746.6223,-386.0229"/>
</g>
<!-- Campaign -->
<g id="node3" class="node">
<title>Campaign</title>
<path fill="none" stroke="#000000" d="M12,-428.5C12,-428.5 138.1211,-428.5 138.1211,-428.5 144.1211,-428.5 150.1211,-434.5 150.1211,-440.5 150.1211,-440.5 150.1211,-572.5 150.1211,-572.5 150.1211,-578.5 144.1211,-584.5 138.1211,-584.5 138.1211,-584.5 12,-584.5 12,-584.5 6,-584.5 0,-578.5 0,-572.5 0,-572.5 0,-440.5 0,-440.5 0,-434.5 6,-428.5 12,-428.5"/>
<text text-anchor="middle" x="75.0605" y="-569.3" font-family="Times,serif" font-size="14.00" fill="#000000">Campaign</text>
<polyline fill="none" stroke="#000000" points="0,-562.5 150.1211,-562.5 "/>
<text text-anchor="start" x="8" y="-547.3" font-family="Times,serif" font-size="14.00" fill="#000000">user_id :Object</text>
<text text-anchor="start" x="8" y="-533.3" font-family="Times,serif" font-size="14.00" fill="#000000">candidate_id :Object</text>
<text text-anchor="start" x="8" y="-519.3" font-family="Times,serif" font-size="14.00" fill="#000000">created_at :Time</text>
<text text-anchor="start" x="8" y="-505.3" font-family="Times,serif" font-size="14.00" fill="#000000">description :Object</text>
<text text-anchor="start" x="8" y="-491.3" font-family="Times,serif" font-size="14.00" fill="#000000">image_filename :Object</text>
<text text-anchor="start" x="8" y="-477.3" font-family="Times,serif" font-size="14.00" fill="#000000">title :Object</text>
<text text-anchor="start" x="8" y="-463.3" font-family="Times,serif" font-size="14.00" fill="#000000">updated_at :Time</text>
<text text-anchor="start" x="8" y="-449.3" font-family="Times,serif" font-size="14.00" fill="#000000">url :Object</text>
<text text-anchor="start" x="8" y="-435.3" font-family="Times,serif" font-size="14.00" fill="#000000">_id :BSON::ObjectId</text>
</g>
<!-- Candidate -->
<g id="node4" class="node">
<title>Candidate</title>
<path fill="none" stroke="#000000" d="M616.3691,-449.5C616.3691,-449.5 727.752,-449.5 727.752,-449.5 733.752,-449.5 739.752,-455.5 739.752,-461.5 739.752,-461.5 739.752,-551.5 739.752,-551.5 739.752,-557.5 733.752,-563.5 727.752,-563.5 727.752,-563.5 616.3691,-563.5 616.3691,-563.5 610.3691,-563.5 604.3691,-557.5 604.3691,-551.5 604.3691,-551.5 604.3691,-461.5 604.3691,-461.5 604.3691,-455.5 610.3691,-449.5 616.3691,-449.5"/>
<text text-anchor="middle" x="672.0605" y="-548.3" font-family="Times,serif" font-size="14.00" fill="#000000">Candidate</text>
<polyline fill="none" stroke="#000000" points="604.3691,-541.5 739.752,-541.5 "/>
<text text-anchor="start" x="612.3691" y="-526.3" font-family="Times,serif" font-size="14.00" fill="#000000">_id :BSON::ObjectId</text>
<text text-anchor="start" x="612.3691" y="-512.3" font-family="Times,serif" font-size="14.00" fill="#000000">created_at :Time</text>
<text text-anchor="start" x="612.3691" y="-498.3" font-family="Times,serif" font-size="14.00" fill="#000000">name :Object</text>
<text text-anchor="start" x="612.3691" y="-484.3" font-family="Times,serif" font-size="14.00" fill="#000000">number :Object</text>
<text text-anchor="start" x="612.3691" y="-470.3" font-family="Times,serif" font-size="14.00" fill="#000000">party :Object</text>
<text text-anchor="start" x="612.3691" y="-456.3" font-family="Times,serif" font-size="14.00" fill="#000000">updated_at :Time</text>
</g>
<!-- Candidate&#45;&gt;Promise -->
<g id="edge3" class="edge">
<title>Candidate&#45;&gt;Promise</title>
<path fill="none" stroke="#7716b0" d="M672.0605,-441.3092C672.0605,-424.6674 672.0605,-406.2667 672.0605,-387.9018"/>
<ellipse fill="none" stroke="#7716b0" cx="672.0606" cy="-445.313" rx="4" ry="4"/>
<polygon fill="#7716b0" stroke="#7716b0" points="672.0606,-387.7141 676.5605,-377.7141 672.0606,-382.7141 672.0605,-377.7141 672.0605,-377.7141 672.0605,-377.7141 672.0606,-382.7141 667.5605,-377.7142 672.0606,-387.7141 672.0606,-387.7141"/>
</g>
<!-- Event -->
<g id="node6" class="node">
<title>Event</title>
<path fill="none" stroke="#000000" d="M218,-414.5C218,-414.5 344.1211,-414.5 344.1211,-414.5 350.1211,-414.5 356.1211,-420.5 356.1211,-426.5 356.1211,-426.5 356.1211,-586.5 356.1211,-586.5 356.1211,-592.5 350.1211,-598.5 344.1211,-598.5 344.1211,-598.5 218,-598.5 218,-598.5 212,-598.5 206,-592.5 206,-586.5 206,-586.5 206,-426.5 206,-426.5 206,-420.5 212,-414.5 218,-414.5"/>
<text text-anchor="middle" x="281.0605" y="-583.3" font-family="Times,serif" font-size="14.00" fill="#000000">Event</text>
<polyline fill="none" stroke="#000000" points="206,-576.5 356.1211,-576.5 "/>
<text text-anchor="start" x="214" y="-561.3" font-family="Times,serif" font-size="14.00" fill="#000000">user_id :Object</text>
<text text-anchor="start" x="214" y="-547.3" font-family="Times,serif" font-size="14.00" fill="#000000">address :Object</text>
<text text-anchor="start" x="214" y="-533.3" font-family="Times,serif" font-size="14.00" fill="#000000">content :Object</text>
<text text-anchor="start" x="214" y="-519.3" font-family="Times,serif" font-size="14.00" fill="#000000">coordinates :Array</text>
<text text-anchor="start" x="214" y="-505.3" font-family="Times,serif" font-size="14.00" fill="#000000">created_at :Time</text>
<text text-anchor="start" x="214" y="-491.3" font-family="Times,serif" font-size="14.00" fill="#000000">image_filename :Object</text>
<text text-anchor="start" x="214" y="-477.3" font-family="Times,serif" font-size="14.00" fill="#000000">likes :Integer</text>
<text text-anchor="start" x="214" y="-463.3" font-family="Times,serif" font-size="14.00" fill="#000000">limit :Integer</text>
<text text-anchor="start" x="214" y="-449.3" font-family="Times,serif" font-size="14.00" fill="#000000">title :Object</text>
<text text-anchor="start" x="214" y="-435.3" font-family="Times,serif" font-size="14.00" fill="#000000">updated_at :Time</text>
<text text-anchor="start" x="214" y="-421.3" font-family="Times,serif" font-size="14.00" fill="#000000">_id :BSON::ObjectId</text>
</g>
<!-- Vote -->
<g id="node11" class="node">
<title>Vote</title>
<path fill="none" stroke="#000000" d="M312,-179.5C312,-179.5 438.1211,-179.5 438.1211,-179.5 444.1211,-179.5 450.1211,-185.5 450.1211,-191.5 450.1211,-191.5 450.1211,-351.5 450.1211,-351.5 450.1211,-357.5 444.1211,-363.5 438.1211,-363.5 438.1211,-363.5 312,-363.5 312,-363.5 306,-363.5 300,-357.5 300,-351.5 300,-351.5 300,-191.5 300,-191.5 300,-185.5 306,-179.5 312,-179.5"/>
<text text-anchor="middle" x="375.0605" y="-348.3" font-family="Times,serif" font-size="14.00" fill="#000000">Vote</text>
<polyline fill="none" stroke="#000000" points="300,-341.5 450.1211,-341.5 "/>
<text text-anchor="start" x="308" y="-326.3" font-family="Times,serif" font-size="14.00" fill="#000000">user_id :Object</text>
<text text-anchor="start" x="308" y="-312.3" font-family="Times,serif" font-size="14.00" fill="#000000">content :Object</text>
<text text-anchor="start" x="308" y="-298.3" font-family="Times,serif" font-size="14.00" fill="#000000">coordinates :Hash</text>
<text text-anchor="start" x="308" y="-284.3" font-family="Times,serif" font-size="14.00" fill="#000000">created_at :Time</text>
<text text-anchor="start" x="308" y="-270.3" font-family="Times,serif" font-size="14.00" fill="#000000">event_id :Object</text>
<text text-anchor="start" x="308" y="-256.3" font-family="Times,serif" font-size="14.00" fill="#000000">image_filename :Object</text>
<text text-anchor="start" x="308" y="-242.3" font-family="Times,serif" font-size="14.00" fill="#000000">likes :Integer</text>
<text text-anchor="start" x="308" y="-228.3" font-family="Times,serif" font-size="14.00" fill="#000000">seq :Integer</text>
<text text-anchor="start" x="308" y="-214.3" font-family="Times,serif" font-size="14.00" fill="#000000">title :Object</text>
<text text-anchor="start" x="308" y="-200.3" font-family="Times,serif" font-size="14.00" fill="#000000">updated_at :Time</text>
<text text-anchor="start" x="308" y="-186.3" font-family="Times,serif" font-size="14.00" fill="#000000">_id :BSON::ObjectId</text>
</g>
<!-- Event&#45;&gt;Vote -->
<g id="edge4" class="edge">
<title>Event&#45;&gt;Vote</title>
<path fill="none" stroke="#a32230" d="M320.9136,-406.8675C325.3753,-395.7131 329.925,-384.3388 334.3968,-373.1594"/>
<ellipse fill="none" stroke="#a32230" cx="319.4276" cy="-410.5823" rx="4" ry="4"/>
<polygon fill="#a32230" stroke="#a32230" points="334.4172,-373.1083 342.3093,-365.4949 336.2741,-368.466 338.1311,-363.8236 338.1311,-363.8236 338.1311,-363.8236 336.2741,-368.466 333.953,-362.1523 334.4172,-373.1083 334.4172,-373.1083"/>
</g>
<!-- Giveup -->
<g id="node7" class="node">
<title>Giveup</title>
<path fill="none" stroke="#000000" d="M386.3691,-435.5C386.3691,-435.5 497.752,-435.5 497.752,-435.5 503.752,-435.5 509.752,-441.5 509.752,-447.5 509.752,-447.5 509.752,-565.5 509.752,-565.5 509.752,-571.5 503.752,-577.5 497.752,-577.5 497.752,-577.5 386.3691,-577.5 386.3691,-577.5 380.3691,-577.5 374.3691,-571.5 374.3691,-565.5 374.3691,-565.5 374.3691,-447.5 374.3691,-447.5 374.3691,-441.5 380.3691,-435.5 386.3691,-435.5"/>
<text text-anchor="middle" x="442.0605" y="-562.3" font-family="Times,serif" font-size="14.00" fill="#000000">Giveup</text>
<polyline fill="none" stroke="#000000" points="374.3691,-555.5 509.752,-555.5 "/>
<text text-anchor="start" x="382.3691" y="-540.3" font-family="Times,serif" font-size="14.00" fill="#000000">user_id :Object</text>
<text text-anchor="start" x="382.3691" y="-526.3" font-family="Times,serif" font-size="14.00" fill="#000000">age :Object</text>
<text text-anchor="start" x="382.3691" y="-512.3" font-family="Times,serif" font-size="14.00" fill="#000000">area :Object</text>
<text text-anchor="start" x="382.3691" y="-498.3" font-family="Times,serif" font-size="14.00" fill="#000000">created_at :Time</text>
<text text-anchor="start" x="382.3691" y="-484.3" font-family="Times,serif" font-size="14.00" fill="#000000">reason :Object</text>
<text text-anchor="start" x="382.3691" y="-470.3" font-family="Times,serif" font-size="14.00" fill="#000000">sex :Object</text>
<text text-anchor="start" x="382.3691" y="-456.3" font-family="Times,serif" font-size="14.00" fill="#000000">updated_at :Time</text>
<text text-anchor="start" x="382.3691" y="-442.3" font-family="Times,serif" font-size="14.00" fill="#000000">_id :BSON::ObjectId</text>
</g>
<!-- Sequence -->
<g id="node9" class="node">
<title>Sequence</title>
<path fill="none" stroke="#000000" d="M564.3691,-761.5C564.3691,-761.5 675.752,-761.5 675.752,-761.5 681.752,-761.5 687.752,-767.5 687.752,-773.5 687.752,-773.5 687.752,-821.5 687.752,-821.5 687.752,-827.5 681.752,-833.5 675.752,-833.5 675.752,-833.5 564.3691,-833.5 564.3691,-833.5 558.3691,-833.5 552.3691,-827.5 552.3691,-821.5 552.3691,-821.5 552.3691,-773.5 552.3691,-773.5 552.3691,-767.5 558.3691,-761.5 564.3691,-761.5"/>
<text text-anchor="middle" x="620.0605" y="-818.3" font-family="Times,serif" font-size="14.00" fill="#000000">Sequence</text>
<polyline fill="none" stroke="#000000" points="552.3691,-811.5 687.752,-811.5 "/>
<text text-anchor="start" x="560.3691" y="-796.3" font-family="Times,serif" font-size="14.00" fill="#000000">_id :BSON::ObjectId</text>
<text text-anchor="start" x="560.3691" y="-782.3" font-family="Times,serif" font-size="14.00" fill="#000000">last_id :Integer</text>
<text text-anchor="start" x="560.3691" y="-768.3" font-family="Times,serif" font-size="14.00" fill="#000000">object :Object</text>
</g>
<!-- User -->
<g id="node10" class="node">
<title>User</title>
<path fill="none" stroke="#000000" d="M361.353,-635.5C361.353,-635.5 522.7681,-635.5 522.7681,-635.5 528.7681,-635.5 534.7681,-641.5 534.7681,-647.5 534.7681,-647.5 534.7681,-947.5 534.7681,-947.5 534.7681,-953.5 528.7681,-959.5 522.7681,-959.5 522.7681,-959.5 361.353,-959.5 361.353,-959.5 355.353,-959.5 349.353,-953.5 349.353,-947.5 349.353,-947.5 349.353,-647.5 349.353,-647.5 349.353,-641.5 355.353,-635.5 361.353,-635.5"/>
<text text-anchor="middle" x="442.0605" y="-944.3" font-family="Times,serif" font-size="14.00" fill="#000000">User</text>
<polyline fill="none" stroke="#000000" points="349.353,-937.5 534.7681,-937.5 "/>
<text text-anchor="start" x="357.353" y="-922.3" font-family="Times,serif" font-size="14.00" fill="#000000">updated_at :Time</text>
<text text-anchor="start" x="357.353" y="-908.3" font-family="Times,serif" font-size="14.00" fill="#000000">created_at :Time</text>
<text text-anchor="start" x="357.353" y="-894.3" font-family="Times,serif" font-size="14.00" fill="#000000">current_sign_in_at :Time</text>
<text text-anchor="start" x="357.353" y="-880.3" font-family="Times,serif" font-size="14.00" fill="#000000">current_sign_in_ip :String</text>
<text text-anchor="start" x="357.353" y="-866.3" font-family="Times,serif" font-size="14.00" fill="#000000">email :String</text>
<text text-anchor="start" x="357.353" y="-852.3" font-family="Times,serif" font-size="14.00" fill="#000000">encrypted_password :String</text>
<text text-anchor="start" x="357.353" y="-838.3" font-family="Times,serif" font-size="14.00" fill="#000000">last_sign_in_at :Time</text>
<text text-anchor="start" x="357.353" y="-824.3" font-family="Times,serif" font-size="14.00" fill="#000000">last_sign_in_ip :String</text>
<text text-anchor="start" x="357.353" y="-810.3" font-family="Times,serif" font-size="14.00" fill="#000000">name :Object</text>
<text text-anchor="start" x="357.353" y="-796.3" font-family="Times,serif" font-size="14.00" fill="#000000">omniauth :Object</text>
<text text-anchor="start" x="357.353" y="-782.3" font-family="Times,serif" font-size="14.00" fill="#000000">omniauth_credentials :Object</text>
<text text-anchor="start" x="357.353" y="-768.3" font-family="Times,serif" font-size="14.00" fill="#000000">omniauth_image :Object</text>
<text text-anchor="start" x="357.353" y="-754.3" font-family="Times,serif" font-size="14.00" fill="#000000">omniauth_provider :Object</text>
<text text-anchor="start" x="357.353" y="-740.3" font-family="Times,serif" font-size="14.00" fill="#000000">omniauth_uid :Object</text>
<text text-anchor="start" x="357.353" y="-726.3" font-family="Times,serif" font-size="14.00" fill="#000000">omniauth_url :Object</text>
<text text-anchor="start" x="357.353" y="-712.3" font-family="Times,serif" font-size="14.00" fill="#000000">password :Object</text>
<text text-anchor="start" x="357.353" y="-698.3" font-family="Times,serif" font-size="14.00" fill="#000000">remember_created_at :Time</text>
<text text-anchor="start" x="357.353" y="-684.3" font-family="Times,serif" font-size="14.00" fill="#000000">reset_password_sent_at :Time</text>
<text text-anchor="start" x="357.353" y="-670.3" font-family="Times,serif" font-size="14.00" fill="#000000">reset_password_token :String</text>
<text text-anchor="start" x="357.353" y="-656.3" font-family="Times,serif" font-size="14.00" fill="#000000">sign_in_count :Integer</text>
<text text-anchor="start" x="357.353" y="-642.3" font-family="Times,serif" font-size="14.00" fill="#000000">_id :BSON::ObjectId</text>
</g>
<!-- User&#45;&gt;Award -->
<g id="edge8" class="edge">
<title>User&#45;&gt;Award</title>
<path fill="none" stroke="#783a47" d="M541.5184,-636.0563C542.0303,-635.7006 542.5444,-635.3485 543.0605,-635 620.0911,-582.9931 668.7752,-645.8262 749.0605,-599 749.8853,-598.519 750.7049,-598.0254 751.5193,-597.5199"/>
<ellipse fill="none" stroke="#783a47" cx="538.2036" cy="-638.4999" rx="4" ry="4"/>
<polygon fill="#783a47" stroke="#783a47" points="751.7948,-597.3311 762.587,-595.387 755.9185,-594.5034 760.0421,-591.6757 760.0421,-591.6757 760.0421,-591.6757 755.9185,-594.5034 757.4972,-587.9644 751.7948,-597.3311 751.7948,-597.3311"/>
</g>
<!-- User&#45;&gt;Campaign -->
<g id="edge9" class="edge">
<title>User&#45;&gt;Campaign</title>
<path fill="none" stroke="#67cef3" d="M342.5883,-636.0773C342.0811,-635.7147 341.5719,-635.3556 341.0605,-635 275.1545,-589.1651 234.4076,-637.6747 164.0605,-599 159.5384,-596.5139 155.1062,-593.7207 150.7846,-590.6963"/>
<ellipse fill="none" stroke="#67cef3" cx="345.8756" cy="-638.5647" rx="4" ry="4"/>
<polygon fill="#67cef3" stroke="#67cef3" points="150.6372,-590.5866 145.3028,-581.0056 146.6265,-587.6009 142.6157,-584.6152 142.6157,-584.6152 142.6157,-584.6152 146.6265,-587.6009 139.9286,-588.2249 150.6372,-590.5866 150.6372,-590.5866"/>
</g>
<!-- User&#45;&gt;Comment -->
<g id="edge11" class="edge">
<title>User&#45;&gt;Comment</title>
<path fill="none" stroke="#df6266" d="M342.9014,-636.3631C342.2907,-635.9038 341.6771,-635.4494 341.0605,-635 287.7488,-596.1431 237.6591,-650.9977 197.0605,-599 136.3313,-521.2194 241.2945,-250.2128 291.0605,-165 296.6485,-155.4319 303.1525,-145.8651 310.0213,-136.6459"/>
<ellipse fill="none" stroke="#df6266" cx="346.1991" cy="-638.9794" rx="4" ry="4"/>
<polygon fill="#df6266" stroke="#df6266" points="310.0657,-136.5878 319.7131,-131.3747 313.1017,-132.615 316.1376,-128.6423 316.1376,-128.6423 316.1376,-128.6423 313.1017,-132.615 312.5621,-125.9099 310.0657,-136.5878 310.0657,-136.5878"/>
</g>
<!-- User&#45;&gt;Event -->
<g id="edge10" class="edge">
<title>User&#45;&gt;Event</title>
<path fill="none" stroke="#7abf1a" d="M348.4927,-628.3804C344.6441,-621.4243 340.8365,-614.5423 337.1063,-607.8001"/>
<ellipse fill="none" stroke="#7abf1a" cx="350.4441" cy="-631.9076" rx="4" ry="4"/>
<polygon fill="#7abf1a" stroke="#7abf1a" points="336.9122,-607.4492 336.0086,-596.5206 334.4916,-603.0742 332.0711,-598.6991 332.0711,-598.6991 332.0711,-598.6991 334.4916,-603.0742 328.1335,-600.8776 336.9122,-607.4492 336.9122,-607.4492"/>
</g>
<!-- User&#45;&gt;Giveup -->
<g id="edge6" class="edge">
<title>User&#45;&gt;Giveup</title>
<path fill="none" stroke="#d28c63" d="M442.0605,-627.3746C442.0605,-612.9507 442.0605,-598.8594 442.0605,-585.69"/>
<ellipse fill="none" stroke="#d28c63" cx="442.0606" cy="-631.4076" rx="4" ry="4"/>
<ellipse fill="#d28c63" stroke="#d28c63" cx="442.0606" cy="-581.6146" rx="4" ry="4"/>
</g>
<!-- User&#45;&gt;Promise -->
<g id="edge5" class="edge">
<title>User&#45;&gt;Promise</title>
<path fill="none" stroke="#b5dfb9" d="M530.0888,-627.8975C534.3116,-618.199 538.3362,-608.5218 542.0605,-599 573.2158,-519.3463 562.764,-493.1978 595.0605,-414 598.9528,-404.4553 603.3092,-394.7223 607.9169,-385.0506"/>
<ellipse fill="none" stroke="#b5dfb9" cx="528.4345" cy="-631.6549" rx="4" ry="4"/>
<ellipse fill="#b5dfb9" stroke="#b5dfb9" cx="609.7444" cy="-381.2717" rx="4" ry="4"/>
</g>
<!-- User&#45;&gt;Vote -->
<g id="edge7" class="edge">
<title>User&#45;&gt;Vote</title>
<path fill="none" stroke="#fbd57f" d="M518.3205,-627.3669C538.1617,-559.2338 547.0746,-481.1343 519.0605,-414 505.9879,-382.6719 482.3042,-354.7112 457.8688,-332.0317"/>
<ellipse fill="none" stroke="#fbd57f" cx="517.1249" cy="-631.3663" rx="4" ry="4"/>
<polygon fill="#fbd57f" stroke="#fbd57f" points="457.6906,-331.8707 453.2897,-321.8266 453.9814,-328.5178 450.2721,-325.1649 450.2721,-325.1649 450.2721,-325.1649 453.9814,-328.5178 447.2545,-328.5033 457.6906,-331.8707 457.6906,-331.8707"/>
</g>
<!-- Vote&#45;&gt;Comment -->
<g id="edge12" class="edge">
<title>Vote&#45;&gt;Comment</title>
<path fill="none" stroke="#13b12b" d="M375.0605,-171.192C375.0605,-160.3604 375.0605,-149.4822 375.0605,-139.0325"/>
<ellipse fill="none" stroke="#13b12b" cx="375.0606" cy="-175.1997" rx="4" ry="4"/>
<polygon fill="#13b12b" stroke="#13b12b" points="375.0606,-138.7431 379.5605,-128.7431 375.0606,-133.7431 375.0605,-128.7431 375.0605,-128.7431 375.0605,-128.7431 375.0606,-133.7431 370.5605,-128.7432 375.0606,-138.7431 375.0606,-138.7431"/>
</g>
</g>
</svg>
